<svg height="512" viewBox="0 0 256 256" width="512" xmlns="http://www.w3.org/2000/svg"><path d="m135.936 137.309c-47.787-12.804-81.975-48.049-88.476-86.363l-20.346 5.454a75.2 75.2 0 0 0 -2.809 8.431c-13.237 49.4 25.736 102.763 87.047 119.191s121.744-10.3 134.981-59.7a3.4 3.4 0 0 0 -5.357-3.57c-26.383 19.788-65.519 27.148-105.04 16.557z" fill="#ffea92"/><path d="m135.936 137.309c39.521 10.59 78.657 3.231 105.04-16.558-129.026 27.914-186.807-62.76-186.807-62.76a13.559 13.559 0 0 0 -3-3.782l-3.709-3.263c6.501 38.314 40.689 73.559 88.476 86.363z" fill="#ffea92"/><g fill="#4671c6"><path d="m240.444 139.514a75.661 75.661 0 0 0 5.889-15.193 3.4 3.4 0 0 0 -5.357-3.57 97.316 97.316 0 0 1 -11.762 7.533z"/><path d="m229.214 128.284a97.194 97.194 0 0 0 11.762-7.533c-5.581 1.208-11.02 2.179-16.335 2.959z"/><path d="m25.415 50.951.785-13.323a4 4 0 0 1 3.993-3.766h13.267a4 4 0 0 1 4 4v13.089z"/></g><path d="m147.5 190.84a141.736 141.736 0 0 1 -36.667-4.89c-30.092-8.062-55.867-25.1-72.576-47.983-16.804-23.01-22.445-49.167-15.884-73.656a77.5 77.5 0 0 1 2.883-8.656 2 2 0 0 1 1.34-1.19l20.346-5.451a2 2 0 0 1 2.49 1.6c6.534 38.505 41.505 72.57 87.022 84.766 37.689 10.1 76.313 4.034 103.321-16.226a5.374 5.374 0 0 1 6.311-.166 5.317 5.317 0 0 1 2.179 5.852c-10.819 40.373-52.565 65.998-100.765 66zm-118.893-132.773a73.183 73.183 0 0 0 -2.37 7.279c-6.242 23.3-.826 48.248 15.251 70.262 16.173 22.145 41.168 38.651 70.382 46.479 60.15 16.114 119.6-10.03 132.531-58.284a1.325 1.325 0 0 0 -.554-1.5 1.4 1.4 0 0 0 -1.671.052c-27.984 20.99-67.894 27.3-106.758 16.89-46.153-12.366-81.834-46.675-89.534-85.8z" fill="#3762cc"/><path d="m172.333 144.167a142.848 142.848 0 0 1 -36.915-4.926c-47-12.593-83.139-47.942-89.93-87.961a2 2 0 0 1 3.293-1.837l3.711 3.264a15.551 15.551 0 0 1 3.4 4.263c.817 1.25 15.342 23.018 44.522 41.277 27.559 17.244 74.242 34.807 140.14 20.55a2 2 0 0 1 1.623 3.555c-19.1 14.325-43.759 21.814-69.844 21.815zm-121.675-87.674c8.921 36.056 42.613 67.314 85.8 78.884 34.053 9.124 68.871 5.053 95.194-10.762-62.187 10.885-106.7-6.253-133.523-23.082-30.6-19.2-45.043-41.526-45.643-42.467-.026-.042-.052-.085-.075-.129a11.677 11.677 0 0 0 -1.753-2.444z" fill="#3762cc"/><path d="m113.52 162.238c37.089 21.413 78.651 24.576 110.686 11.716-138.013-6.732-171.869-114.061-171.869-114.061a14.2 14.2 0 0 0 -2.005-4.637l-2.869-4.3c-3.806 40.494 21.211 85.39 66.057 111.282z" fill="#ffea92"/><path d="m113.52 162.238c-44.846-25.892-69.863-70.788-66.057-111.287h-22.048a78.955 78.955 0 0 0 -5.124 7.763c-26.765 46.359-1.819 110.87 55.719 144.086s125.88 22.568 152.645-23.79a3.559 3.559 0 0 0 -4.449-5.06c-32.035 12.864-73.597 9.701-110.686-11.712z" fill="#ffea92"/><path d="m25.417 52.951h-.119a2 2 0 0 1 -1.879-2.114l.781-13.326a6.005 6.005 0 0 1 5.989-5.649h13.271a6.007 6.007 0 0 1 6 6v13.089a2 2 0 0 1 -4 0v-13.089a2 2 0 0 0 -2-2h-13.27a2 2 0 0 0 -2 1.883l-.782 13.323a2 2 0 0 1 -1.991 1.883z" fill="#3762cc"/><path d="m224.206 173.954a102.384 102.384 0 0 1 -16.065 4.93l8.489 15.966a79.222 79.222 0 0 0 12.025-15.836 3.559 3.559 0 0 0 -4.449-5.06z" fill="#4671c6"/><path d="m208.141 178.884a102.384 102.384 0 0 0 16.065-4.93c-6.783-.331-13.3-.913-19.593-1.705z" fill="#4671c6"/><path d="m183.119 183.605c-23.522 0-48.119-6.656-70.6-19.635-44.075-25.447-71.019-70.941-67.047-113.206a2 2 0 0 1 3.655-.922l2.873 4.305a16.158 16.158 0 0 1 2.269 5.206c.478 1.456 9.265 27.428 33.848 53.825 23.2 24.915 65.666 55.338 136.191 58.778a2 2 0 0 1 .647 3.854 112.189 112.189 0 0 1 -41.836 7.795zm-134.012-126.527c-.907 39.008 24.738 79.944 65.413 103.428 32.144 18.558 68.688 23.836 99.715 14.778-66.093-5.733-106.572-35.191-129.183-59.524-25.727-27.685-34.271-54.153-34.622-55.266-.015-.048-.028-.1-.04-.145a12.19 12.19 0 0 0 -1.283-3.271z" fill="#3762cc"/><path d="m145.581 224.084c-23.106 0-47.7-6.346-70.571-19.548-28.222-16.294-49.651-40.489-60.339-68.128-10.746-27.791-9.366-55.738 3.888-78.694a81.083 81.083 0 0 1 5.254-7.96 2 2 0 0 1 1.6-.8h22.05a2 2 0 0 1 1.991 2.187c-3.829 40.737 22.319 84.688 65.066 109.368 35.394 20.434 76.12 24.768 108.94 11.592a5.533 5.533 0 0 1 6.321 1.516 5.473 5.473 0 0 1 .606 6.4c-16.595 28.74-48.899 44.066-84.806 44.067zm-119.155-171.133a76.71 76.71 0 0 0 -4.4 6.763c-12.639 21.886-13.926 48.612-3.626 75.251 10.36 26.791 31.174 50.268 58.608 66.107 56.491 32.615 123.742 22.271 149.913-23.058a1.475 1.475 0 0 0 -.163-1.779 1.556 1.556 0 0 0 -1.809-.425c-33.953 13.63-75.983 9.2-112.431-11.84-43.318-25.009-70.086-69.379-67.224-111.019z" fill="#3762cc"/></svg>