<svg height="512" viewBox="0 0 256 256" width="512" xmlns="http://www.w3.org/2000/svg"><path d="m246.852 88.541-49.87-51.5a7 7 0 0 0 -5.029-2.131h-127.889a7 7 0 0 0 -5.027 2.13l-49.902 51.502a4.054 4.054 0 0 0 .046 5.687l33.456 33.456a4.053 4.053 0 0 0 5.734 0l12.729-12.728v101.136a5 5 0 0 0 5 5h123.819a5 5 0 0 0 5-5v-101.1l12.7 12.7a4.053 4.053 0 0 0 5.734 0l33.457-33.456a4.056 4.056 0 0 0 .042-5.696z" fill="#4671c6"/><path d="m50.652 82.83c2.54-2.54.8-8.394-3.876-13.074a19.774 19.774 0 0 0 -5.376-3.877 19.79 19.79 0 0 0 5.376-3.879c4.681-4.681 6.416-10.534 3.876-13.075a3.975 3.975 0 0 0 -2.113-1.056l-32.613 33.664a3.731 3.731 0 0 0 .825 1.3c2.54 2.54 8.393.8 13.074-3.876a19.79 19.79 0 0 0 3.875-5.375 19.774 19.774 0 0 0 3.877 5.372c4.681 4.68 10.535 6.416 13.075 3.876z" fill="#6bdddd"/><path d="m30.355 69.226a4.733 4.733 0 1 0 5.006-7.769l-6.032 6.229a4.711 4.711 0 0 0 1.026 1.54z" fill="#e0ebfc"/><path d="m176.289 34.908h-96.56l10.749 23.492a2 2 0 0 0 1.822 1.165h8.981a1 1 0 0 1 .48 1.877l-6.761 3.705a2 2 0 0 0 -.337 3.275l33.347 28.429 33.347-28.429a2 2 0 0 0 -.336-3.275l-6.759-3.705a1 1 0 0 1 .481-1.877h8.98a2 2 0 0 0 1.819-1.168z" fill="#e0ebfc"/><path d="m128.009 34.908h-24.14l24.14 61.943 24.14-61.943z" fill="#a4c9ff"/><path d="m128.009 223.093a2 2 0 0 1 -2-2v-124.242a2 2 0 0 1 4 0v124.242a2 2 0 0 1 -2 2z" fill="#3762cc"/><path d="m99.034 151.945a19.775 19.775 0 0 0 5.372-3.876c4.681-4.681 6.416-10.535 3.876-13.075s-8.393-.8-13.074 3.877a19.771 19.771 0 0 0 -3.876 5.371 19.755 19.755 0 0 0 -3.877-5.371c-4.681-4.681-10.534-6.417-13.074-3.877s-.805 8.394 3.876 13.075a19.775 19.775 0 0 0 5.372 3.876 19.775 19.775 0 0 0 -5.372 3.876c-4.681 4.681-6.416 10.535-3.876 13.075s8.393.8 13.074-3.877a19.77 19.77 0 0 0 3.877-5.371 19.787 19.787 0 0 0 3.876 5.371c4.681 4.681 10.534 6.417 13.074 3.877s.805-8.394-3.876-13.075a19.775 19.775 0 0 0 -5.372-3.876z" fill="#6bdddd"/><circle cx="91.332" cy="151.945" fill="#e0ebfc" r="4.733"/><g fill="#3762cc"><path d="m128.009 98.851a2 2 0 0 1 -1.863-1.274l-24.14-61.943a2 2 0 0 1 1.863-2.726h48.28a2 2 0 0 1 1.864 2.726l-24.141 61.943a2 2 0 0 1 -1.863 1.274zm-21.209-61.943 21.214 54.435 21.215-54.435z"/><path d="m61.1 116.958a2 2 0 0 1 -2-2v-79.387a2 2 0 0 1 4 0v79.387a2 2 0 0 1 -2 2z"/><path d="m128.009 98.851a2 2 0 0 1 -1.3-.478l-33.345-28.429a4 4 0 0 1 .672-6.551l3.336-1.829h-5.072a4.013 4.013 0 0 1 -3.638-2.334l-10.751-23.49a2 2 0 0 1 1.818-2.832h96.56a2 2 0 0 1 1.818 2.832l-10.749 23.489a4.008 4.008 0 0 1 -3.636 2.335h-5.076l3.334 1.829a4 4 0 0 1 .672 6.552l-33.345 28.428a2 2 0 0 1 -1.298.478zm-26.733-41.287a3 3 0 0 1 1.443 5.631l-6.76 3.705 32.05 27.323 32.049-27.323-6.758-3.7a3 3 0 0 1 1.441-5.631h8.981l9.453-20.656h-90.331l9.456 20.652z"/></g><path d="m169.756 107.85a19.775 19.775 0 0 0 5.372-3.876c4.681-4.681 6.416-10.535 3.876-13.075s-8.393-.8-13.074 3.877a19.813 19.813 0 0 0 -3.877 5.371 19.787 19.787 0 0 0 -3.876-5.371c-4.677-4.676-10.534-6.417-13.077-3.876s-.805 8.394 3.876 13.075a19.775 19.775 0 0 0 5.372 3.876 19.775 19.775 0 0 0 -5.372 3.876c-4.681 4.681-6.416 10.535-3.876 13.075s8.393.8 13.074-3.876a19.806 19.806 0 0 0 3.876-5.372 19.832 19.832 0 0 0 3.877 5.372c4.681 4.68 10.534 6.416 13.074 3.876s.805-8.394-3.876-13.075a19.775 19.775 0 0 0 -5.369-3.877z" fill="#6bdddd"/><circle cx="162.053" cy="107.85" fill="#e0ebfc" r="4.733"/><path d="m169.756 193.5a19.775 19.775 0 0 0 5.372-3.876c4.681-4.681 6.416-10.535 3.876-13.074s-8.393-.8-13.074 3.876a19.813 19.813 0 0 0 -3.877 5.371 19.787 19.787 0 0 0 -3.876-5.371c-4.681-4.681-10.534-6.416-13.074-3.876s-.805 8.393 3.876 13.074a19.775 19.775 0 0 0 5.372 3.876 19.759 19.759 0 0 0 -5.372 3.877c-4.681 4.68-6.416 10.534-3.876 13.074s8.393.8 13.074-3.876a19.79 19.79 0 0 0 3.876-5.372 19.817 19.817 0 0 0 3.877 5.372c4.681 4.68 10.534 6.416 13.074 3.876s.805-8.394-3.876-13.074a19.759 19.759 0 0 0 -5.372-3.877z" fill="#6bdddd"/><circle cx="162.053" cy="193.496" fill="#e0ebfc" r="4.733"/><path d="m205.358 82.83c-2.54-2.54-.8-8.394 3.876-13.074a19.789 19.789 0 0 1 5.372-3.877 19.806 19.806 0 0 1 -5.372-3.879c-4.68-4.681-6.416-10.534-3.876-13.075a3.975 3.975 0 0 1 2.114-1.056l32.613 33.661a3.76 3.76 0 0 1 -.825 1.3c-2.54 2.54-8.394.8-13.075-3.876a19.79 19.79 0 0 1 -3.876-5.372 19.79 19.79 0 0 1 -3.876 5.372c-4.681 4.68-10.533 6.416-13.075 3.876z" fill="#6bdddd"/><path d="m225.656 69.226a4.733 4.733 0 1 1 -5.007-7.769l6.032 6.229a4.708 4.708 0 0 1 -1.025 1.54z" fill="#e0ebfc"/><path d="m194.919 116.989a2 2 0 0 1 -2-2v-79.418a2 2 0 0 1 4 0v79.418a2 2 0 0 1 -2 2z" fill="#3762cc"/><path d="m189.932 223.093h-123.819a7.008 7.008 0 0 1 -7-6.991v-96.316l-9.313 9.314a6.065 6.065 0 0 1 -8.563 0l-33.457-33.457a6.082 6.082 0 0 1 -.068-8.493l49.9-51.5a9.051 9.051 0 0 1 6.464-2.737h127.89a9.045 9.045 0 0 1 6.466 2.739l49.87 51.5a6.081 6.081 0 0 1 -.069 8.493l-33.457 33.455a6.061 6.061 0 0 1 -8.561 0l-9.283-9.283v96.276a7.008 7.008 0 0 1 -7 7zm-126.819-7a3 3 0 0 0 3 3h123.819a3 3 0 0 0 3-3v-101.1a2 2 0 0 1 3.414-1.414l12.7 12.7a2.056 2.056 0 0 0 2.905 0l33.457-33.456a2.065 2.065 0 0 0 .024-2.882l-49.87-51.5a5.028 5.028 0 0 0 -3.593-1.521h-127.892a5.031 5.031 0 0 0 -3.592 1.521l-49.9 51.5a2.065 2.065 0 0 0 .023 2.882l33.456 33.456a2.06 2.06 0 0 0 2.907 0l12.729-12.736a2 2 0 0 1 3.414 1.414z" fill="#3762cc"/></svg>