<svg height="512" viewBox="0 0 256 256" width="512" xmlns="http://www.w3.org/2000/svg"><path d="m229.439 127.562a3.841 3.841 0 0 0 -3.841-3.84h-9.421a35.947 35.947 0 0 0 -30.677 17.178 35.945 35.945 0 0 0 -30.675-17.182h-9.421a3.84 3.84 0 0 0 -3.841 3.84c0 18.416 13.939 35.971 38.112 35.971-1.336 15.268-15.453 28.178-35.144 33.794a14.628 14.628 0 0 1 -18.6-14.44 72.811 72.811 0 0 0 -5.275-28.77h-47.929a72.25 72.25 0 0 0 -4.636 36.746c3.088 30.306 30.4 54.013 63.652 54.013 35.32 0 63.952-26.748 63.952-59.743a56.111 56.111 0 0 0 -4.319-21.6c24.224.004 38.063-17.705 38.063-35.967z" fill="#6bdddd"/><path d="m131.743 246.876a68.331 68.331 0 0 1 -44.435-16.121 60.248 60.248 0 0 1 -21.208-39.689 73.848 73.848 0 0 1 4.769-37.69 2 2 0 0 1 1.858-1.259h47.927a2 2 0 0 1 1.858 1.259 74.728 74.728 0 0 1 5.416 29.558 12.629 12.629 0 0 0 16.053 12.47c18.271-5.211 31.117-16.806 33.422-29.922-24.6-1.1-37.841-20.055-37.841-37.919a5.848 5.848 0 0 1 5.841-5.841h9.421a37.705 37.705 0 0 1 30.676 15.588 37.708 37.708 0 0 1 30.676-15.588h9.424a5.847 5.847 0 0 1 5.84 5.841c0 17.713-13 36.5-37.174 37.888a57.922 57.922 0 0 1 3.431 19.682c.003 34.045-29.588 61.743-65.954 61.743zm-57.643-90.759a69.791 69.791 0 0 0 -4.023 34.477c3.041 29.834 29.55 52.282 61.67 52.282 34.16 0 61.952-25.9 61.952-57.743a54.015 54.015 0 0 0 -4.166-20.833 2 2 0 0 1 1.847-2.767c23.675 0 36.062-17.09 36.062-33.97a1.842 1.842 0 0 0 -1.84-1.841h-9.421a33.776 33.776 0 0 0 -28.972 16.228 2 2 0 0 1 -1.7.954 2 2 0 0 1 -1.7-.954 33.773 33.773 0 0 0 -28.972-16.228h-9.437a1.843 1.843 0 0 0 -1.841 1.841c0 16.88 12.405 33.97 36.113 33.97a2 2 0 0 1 1.992 2.174c-1.367 15.642-15.73 29.594-36.588 35.543a16.627 16.627 0 0 1 -21.15-16.409 70.547 70.547 0 0 0 -4.643-26.724z" fill="#3762cc"/><path d="m66.929 55.346v-5.695a17.319 17.319 0 0 1 17.32-17.319 17.245 17.245 0 0 1 10.6 3.625 2.64 2.64 0 0 0 3.252 0 17.245 17.245 0 0 1 10.6-3.625 17.319 17.319 0 0 1 17.32 17.319v5.695a8.993 8.993 0 0 1 7.338 3.5v-16.461a31.185 31.185 0 0 0 -36.65-30.834l-.23.038-.23-.038a31.187 31.187 0 0 0 -36.658 30.834v16.462a8.99 8.99 0 0 1 7.338-3.501z" fill="#b9befc"/><path d="m70.95 125.407a11.4 11.4 0 0 1 -11.361-11.707c0-.058 0-.117 0-.176 0-5.944-6.427-5.944-6.427-11.888s6.427-5.942 6.427-11.885-6.425-5.951-6.425-11.889 6.427-5.943 6.427-11.885-6.427-5.943-6.427-11.885 6.427-5.942 6.427-11.884h73.776c0 5.942 6.428 5.942 6.428 11.884s-6.428 5.942-6.428 11.885 6.428 5.942 6.428 11.885-6.428 5.942-6.428 11.885 6.428 5.943 6.428 11.885-6.428 5.944-6.428 11.888v.176a11.4 11.4 0 0 1 -11.36 11.711z" fill="#4671c6"/><path d="m66.929 55.346v-5.695a17.319 17.319 0 0 1 17.32-17.319 17.245 17.245 0 0 1 10.6 3.625 2.64 2.64 0 0 0 3.252 0 17.245 17.245 0 0 1 10.6-3.625 17.319 17.319 0 0 1 17.32 17.319v5.695a8.993 8.993 0 0 1 7.338 3.5v-16.461a31.185 31.185 0 0 0 -36.65-30.834l-.23.038-.23-.038a31.187 31.187 0 0 0 -36.658 30.834v16.462a8.99 8.99 0 0 1 7.338-3.501z" fill="#4671c6"/><path d="m122.008 127.407h-51.058a13.217 13.217 0 0 1 -9.521-4 13.411 13.411 0 0 1 -3.84-9.75v-.133c0-2-.929-2.957-2.571-4.476-1.718-1.588-3.856-3.565-3.856-7.412s2.138-5.823 3.856-7.411c1.642-1.518 2.571-2.475 2.571-4.474s-.929-2.955-2.571-4.474c-1.718-1.588-3.856-3.565-3.856-7.411s2.138-5.823 3.856-7.411c1.642-1.518 2.571-2.475 2.571-4.474s-.929-2.956-2.571-4.475c-1.719-1.587-3.856-3.564-3.856-7.41s2.138-5.822 3.856-7.41c1.642-1.518 2.571-2.474 2.571-4.474 0-.057 0-.114.007-.17a33.17 33.17 0 0 1 38.883-32.48 33.168 33.168 0 0 1 38.881 32.477c0 .056.007.112.007.169 0 2 .93 2.956 2.571 4.474 1.719 1.588 3.857 3.564 3.857 7.41s-2.138 5.823-3.857 7.411c-1.641 1.518-2.571 2.475-2.571 4.474s.93 2.956 2.571 4.474c1.719 1.588 3.857 3.565 3.857 7.411s-2.139 5.823-3.857 7.411c-1.642 1.519-2.571 2.475-2.571 4.474s.929 2.956 2.571 4.474c1.718 1.588 3.857 3.565 3.857 7.411s-2.138 5.824-3.857 7.412c-1.641 1.519-2.571 2.476-2.571 4.476v.143a13.4 13.4 0 0 1 -3.839 9.739 13.22 13.22 0 0 1 -9.52 4.005zm-60.419-85.027c-.062 3.734-2.162 5.675-3.854 7.239-1.642 1.518-2.571 2.474-2.571 4.473s.929 2.955 2.571 4.473c1.718 1.589 3.856 3.566 3.856 7.412s-2.138 5.823-3.856 7.411c-1.642 1.518-2.571 2.475-2.571 4.474s.929 2.956 2.571 4.474c1.718 1.588 3.856 3.565 3.856 7.411s-2.138 5.823-3.856 7.411c-1.642 1.518-2.571 2.475-2.571 4.474s.929 2.957 2.571 4.476c1.718 1.588 3.856 3.565 3.856 7.412v.226a9.441 9.441 0 0 0 2.7 6.86 9.251 9.251 0 0 0 6.662 2.8h51.058a9.25 9.25 0 0 0 6.663-2.8 9.435 9.435 0 0 0 2.7-6.865v-.22c0-3.847 2.138-5.824 3.856-7.412 1.642-1.519 2.572-2.476 2.572-4.476s-.93-2.956-2.571-4.474c-1.719-1.588-3.857-3.565-3.857-7.411s2.138-5.823 3.857-7.411c1.641-1.518 2.571-2.475 2.571-4.474s-.93-2.956-2.571-4.474c-1.719-1.588-3.857-3.565-3.857-7.411s2.139-5.823 3.857-7.412c1.642-1.518 2.571-2.474 2.571-4.473s-.929-2.955-2.571-4.473c-1.693-1.564-3.793-3.506-3.856-7.239 0-.053-.007-.107-.007-.161a29.171 29.171 0 0 0 -34.335-28.696l-.231.038a2 2 0 0 1 -.646 0l-.23-.038a29.173 29.173 0 0 0 -34.326 28.695c0 .054-.006.108-.011.161z" fill="#3762cc"/><path d="m165.742 191.018-16.264-14.053c-1.028-.887.088 1.437-16.111-41.082v-21.231a15.809 15.809 0 0 0 -15.809-15.809h-7.375v-12.712h-27.434v12.712h-7.349a15.809 15.809 0 0 0 -15.809 15.809v21.231h.023c-16.2 42.519-15.083 40.195-16.11 41.082l-16.264 14.053a1.959 1.959 0 0 0 -.056 2.915 1.957 1.957 0 0 0 1.934.433l18.456-5.912a.732.732 0 0 1 .954.658 3.714 3.714 0 0 1 -.066 1.559l-1.285 2.97a1.506 1.506 0 0 0 2.674 1.373l2.669-4.453a16.611 16.611 0 0 0 2.332-9.561l-.169-2.734 26.069-42.379h31.478l26.07 42.375-.171 2.738a16.611 16.611 0 0 0 2.332 9.565l2.669 4.453a1.505 1.505 0 0 0 2.056.524c1.445-.85.484-2.207-.666-4.866a3.719 3.719 0 0 1 -.067-1.56.732.732 0 0 1 .954-.658l18.456 5.912a1.959 1.959 0 0 0 1.879-3.348z" fill="#f9cfcf"/><path d="m48.55 197.744a3.5 3.5 0 0 1 -3.209-4.9l.792-1.831-16.4 5.255a3.96 3.96 0 0 1 -3.8-6.767l16.267-14.049c.057-.05.11-.093.16-.133.435-.754 1.931-4.7 6.1-15.707 2.169-5.722 5.112-13.485 9.131-24.035v-20.925a17.83 17.83 0 0 1 17.809-17.809h5.349v-10.712a2 2 0 0 1 2-2h27.434a2 2 0 0 1 2 2v10.712h5.375a17.83 17.83 0 0 1 17.809 17.809v20.863c4.033 10.588 6.985 18.372 9.158 24.106 4.171 11 5.665 14.944 6.1 15.7.062.049.109.088.16.132l16.265 14.047a3.959 3.959 0 0 1 -3.8 6.766l-16.385-5.248c.892 1.953 2.092 4.614-.668 6.238a3.516 3.516 0 0 1 -4.786-1.218l-2.67-4.453a18.532 18.532 0 0 1 -2.612-10.717l.13-2.1-25.151-40.888h-29.239l-25.151 40.891.131 2.1a18.536 18.536 0 0 1 -2.613 10.717l-2.669 4.452a3.515 3.515 0 0 1 -3.017 1.704zm13.041-62.124a1.951 1.951 0 0 1 -.108.975c-4.1 10.756-7.087 18.641-9.283 24.435-6.28 16.565-6.28 16.565-7.32 17.393l-16.333 14.108 18.417-5.981a2.73 2.73 0 0 1 3.561 2.45l.017.234c.016.2.033.43.036.675l.227-.38a14.546 14.546 0 0 0 2.051-8.413l-.169-2.734a2.009 2.009 0 0 1 .292-1.171l26.069-42.38a2 2 0 0 1 1.7-.952h31.482a2 2 0 0 1 1.7.952l26.07 42.384a2 2 0 0 1 .293 1.171l-.169 2.734a14.541 14.541 0 0 0 2.052 8.413l.227.38c0-.243.02-.47.035-.671l.017-.237a2.732 2.732 0 0 1 3.562-2.455l18.266 5.851-16.113-13.922c-1.108-.884-1.108-.884-7.385-17.44-2.2-5.795-5.187-13.683-9.287-24.444a1.992 1.992 0 0 1 -.131-.712v-21.231a13.825 13.825 0 0 0 -13.809-13.809h-7.375a2 2 0 0 1 -2-2v-10.712h-23.434v10.712a2 2 0 0 1 -2 2h-7.349a13.825 13.825 0 0 0 -13.809 13.809zm-15.06 53.6v.037zm99.919 0v.038c-.001-.015-.001-.028 0-.04z" fill="#3762cc"/><path d="m126.029 55.346a8.936 8.936 0 1 1 -.78 17.806 29.609 29.609 0 0 1 -57.539 0 8.983 8.983 0 0 1 -9.983-8.881 8.85 8.85 0 0 1 1.864-5.424 9.1 9.1 0 0 1 7.338-3.5v-5.696a17.321 17.321 0 0 1 27.924-13.694 2.64 2.64 0 0 0 3.252 0 17.245 17.245 0 0 1 10.6-3.625 17.319 17.319 0 0 1 17.32 17.319v5.695z" fill="#f9cfcf"/><g fill="#3762cc"><path d="m96.469 83.66a8.452 8.452 0 0 1 -6-2.34 5.933 5.933 0 0 1 -1.794-4.17 2 2 0 0 1 4 0 1.978 1.978 0 0 0 .634 1.353 4.51 4.51 0 0 0 3.162 1.157 4.419 4.419 0 0 0 3.141-1.16 1.98 1.98 0 0 0 .634-1.353 2 2 0 0 1 4 0 5.929 5.929 0 0 1 -1.794 4.17 8.427 8.427 0 0 1 -5.983 2.343z"/><path d="m117.93 58.372h-4.183a4.236 4.236 0 0 0 -5.774 3.971v4.545a4.261 4.261 0 0 0 8.522 0v-4.516h1.435a2 2 0 0 0 0-4z"/><path d="m80.724 58.083a4.232 4.232 0 0 0 -1.513.289h-4.182a2 2 0 0 0 0 4h1.435v4.516a4.261 4.261 0 1 0 8.521 0v-4.545a4.26 4.26 0 0 0 -4.261-4.26z"/><path d="m128.029 53.491a10.968 10.968 0 0 1 5.922 3.013 10.8 10.8 0 0 1 3.28 7.767 10.919 10.919 0 0 1 -3.617 8.1 11.074 11.074 0 0 1 -6.833 2.815 31.625 31.625 0 0 1 -60.6 0 11.069 11.069 0 0 1 -6.831-2.815 10.918 10.918 0 0 1 -3.619-8.1 10.788 10.788 0 0 1 2.281-6.646 11.068 11.068 0 0 1 6.917-4.125v-3.849a19.342 19.342 0 0 1 19.32-19.319 19.134 19.134 0 0 1 11.83 4.044.635.635 0 0 0 .8 0 19.134 19.134 0 0 1 11.829-4.044 19.342 19.342 0 0 1 19.32 19.319v3.84zm-59.1-.017v1.872a2 2 0 0 1 -2.04 2 7.084 7.084 0 0 0 -5.715 2.723 6.828 6.828 0 0 0 -1.447 4.2 6.913 6.913 0 0 0 2.294 5.131 7 7 0 0 0 5.479 1.763 1.9 1.9 0 0 1 .212-.012 2 2 0 0 1 1.945 1.542 27.609 27.609 0 0 0 53.646 0 1.992 1.992 0 0 1 2.157-1.53 6.986 6.986 0 0 0 5.479-1.765 6.909 6.909 0 0 0 2.293-5.127 6.829 6.829 0 0 0 -2.08-4.91 6.988 6.988 0 0 0 -5.082-2.015 1.954 1.954 0 0 1 -1.44-.572 2 2 0 0 1 -.6-1.428v-5.695a15.336 15.336 0 0 0 -15.32-15.319 15.164 15.164 0 0 0 -9.378 3.206 4.653 4.653 0 0 1 -5.7 0 15.168 15.168 0 0 0 -9.378-3.2 15.337 15.337 0 0 0 -15.32 15.319v3.823z"/></g><path d="m68.695 128a72.192 72.192 0 0 0 1.7 15.581l2.33 10.536h47.928l2.331-10.536a72.192 72.192 0 0 0 1.7-15.581z" fill="#f9cfcf"/><path d="m124.658 121.26c-.461-6.285-6.7-11.264-14.342-11.264-6.338 0-11.714 3.429-13.625 8.188-1.911-4.759-7.286-8.184-13.624-8.184-7.684 0-13.959 5.038-14.352 11.378h-.02v5.465h.03c.461 6.286 6.7 11.264 14.342 11.264 6.338 0 11.713-3.429 13.624-8.187 1.911 4.758 7.287 8.187 13.625 8.187 7.684 0 13.959-5.038 14.352-11.377h.02v-5.47z" fill="#f9a7a7"/><path d="m120.655 156.117h-47.927a2 2 0 0 1 -1.953-1.568l-2.331-10.536a74.391 74.391 0 0 1 -1.664-12.467c-.057-1.171-.085-2.365-.085-3.546a2 2 0 0 1 4 0c0 1.118.027 2.247.08 3.355a70.273 70.273 0 0 0 1.575 11.794l1.983 8.968h44.716l1.984-8.969a70.35 70.35 0 0 0 1.575-11.793c.053-1.108.08-2.237.08-3.355a2 2 0 0 1 4 0c0 1.181-.028 2.375-.085 3.546a74.264 74.264 0 0 1 -1.665 12.466l-2.33 10.537a2 2 0 0 1 -1.953 1.568z" fill="#3762cc"/><path d="m110.316 140.1a17.26 17.26 0 0 1 -13.625-6.233 17.257 17.257 0 0 1 -13.624 6.233c-8.478 0-15.559-5.573-16.3-12.754a1.915 1.915 0 0 1 -.068-.511v-5.465a1.988 1.988 0 0 1 .047-.433c.634-7.28 7.735-12.937 16.321-12.937a17.256 17.256 0 0 1 13.624 6.232 17.26 17.26 0 0 1 13.625-6.232c8.473 0 15.55 5.566 16.3 12.741a2 2 0 0 1 .069.523v5.436a2.075 2.075 0 0 1 -.043.419c-.613 7.303-7.725 12.981-16.326 12.981zm-13.625-12.184a2 2 0 0 1 1.856 1.254c1.666 4.147 6.395 6.934 11.769 6.934 6.6 0 12.025-4.174 12.356-9.5 0-.054.009-.107.016-.159v-4.838a1.815 1.815 0 0 1 -.025-.2c-.387-5.278-5.81-9.411-12.347-9.411-5.374 0-10.1 2.786-11.769 6.933a2 2 0 0 1 -3.712 0c-1.665-4.147-6.395-6.929-11.768-6.929-6.6 0-12.025 4.173-12.356 9.5 0 .054-.009.107-.016.159v4.838a1.865 1.865 0 0 1 .025.2c.387 5.277 5.81 9.411 12.347 9.411 5.373 0 10.1-2.787 11.768-6.934a2 2 0 0 1 1.856-1.258z" fill="#3762cc"/></svg>