<?xml version="1.0"?>
<svg xmlns="http://www.w3.org/2000/svg" viewBox="0 0 256 256" width="512" height="512"><path d="M187.81,14.41q-4.894-.854-9.8-1.413a2.88,2.88,0,0,0-2.375,4.895l4.363,4.363a10.782,10.782,0,0,1-.712,15.9,11.016,11.016,0,0,1-14.785-.906l-23.4-23.4a2.9,2.9,0,0,0-2.375-.833,171.777,171.777,0,0,0-33.668,7.354,2.883,2.883,0,0,0-.746,5.1l33.152,23.212A10.781,10.781,0,0,1,125.09,66.338L78.269,33.554a2.885,2.885,0,0,0-3.05-.168,170.983,170.983,0,0,0-18.17,11.62A117.625,117.625,0,0,0,43.143,56.977a2.882,2.882,0,0,0,.829,4.639L97.529,86.591a10.78,10.78,0,0,1-9.111,19.54l-59.18-27.6a2.869,2.869,0,0,0-3.676,1.108,117.352,117.352,0,0,0-6.117,11.688h0a85.044,85.044,0,0,0-6.224,19.982,2.835,2.835,0,0,0,2.075,3.219l42.917,11.5a10.781,10.781,0,0,1,7.431,13.842,11.06,11.06,0,0,1-13.417,6.875l-35.615-9.543a2.878,2.878,0,0,0-3.6,3.226,85.043,85.043,0,0,0,23.777,46.249h0a23,23,0,0,0,32.524,0l0,0,0,0a23,23,0,0,0,0,32.524h0a85.035,85.035,0,0,0,46.249,23.776,2.877,2.877,0,0,0,3.226-3.594l-9.56-35.677a11.017,11.017,0,0,1,6.608-13.257,10.783,10.783,0,0,1,14.126,7.332l11.5,42.918a2.911,2.911,0,0,0,3.284,2.062,84.96,84.96,0,0,0,19.916-6.211h0a117.438,117.438,0,0,0,11.687-6.116,2.871,2.871,0,0,0,1.109-3.677l-27.6-59.18a10.78,10.78,0,0,1,19.54-9.111l24.975,53.557a2.882,2.882,0,0,0,4.639.829,117.555,117.555,0,0,0,11.971-13.907,170.868,170.868,0,0,0,11.62-18.169,2.885,2.885,0,0,0-.167-3.05l-32.785-46.822a10.78,10.78,0,0,1,17.662-12.366l23.212,33.151a2.882,2.882,0,0,0,5.1-.746,171.751,171.751,0,0,0,7.354-33.667,2.894,2.894,0,0,0-.833-2.375l-23.4-23.4a11.016,11.016,0,0,1-.907-14.785,10.782,10.782,0,0,1,15.9-.713l4.364,4.363A2.88,2.88,0,0,0,243,77.994q-.562-4.906-1.413-9.805l-7.513-43.012a4,4,0,0,0-3.252-3.252Z" fill="#6bdddd"/><path d="M116.037,245.022a4.771,4.771,0,0,1-.8-.066A86.642,86.642,0,0,1,67.9,220.621a25.034,25.034,0,0,1-5.512-27.013A25.035,25.035,0,0,1,35.379,188.1a86.643,86.643,0,0,1-24.335-47.334,4.822,4.822,0,0,1,1.528-4.381,4.874,4.874,0,0,1,4.557-1.106l35.614,9.543a9.014,9.014,0,0,0,11-5.576,8.781,8.781,0,0,0-6.05-11.277l-42.918-11.5a4.857,4.857,0,0,1-3.524-5.506,87.058,87.058,0,0,1,6.37-20.452,119.5,119.5,0,0,1,6.223-11.889,4.848,4.848,0,0,1,6.237-1.895l59.181,27.6A8.78,8.78,0,1,0,96.684,88.4L43.126,63.429a4.883,4.883,0,0,1-1.4-7.862A119.95,119.95,0,0,1,55.866,43.393,173.669,173.669,0,0,1,74.249,31.637a4.909,4.909,0,0,1,5.168.279L126.238,64.7A8.781,8.781,0,0,0,136.31,50.313L103.158,27.1a4.883,4.883,0,0,1,1.273-8.637,174.131,174.131,0,0,1,34.058-7.44,4.842,4.842,0,0,1,4.02,1.407l23.4,23.4A9.024,9.024,0,0,0,178,36.623a8.782,8.782,0,0,0,.585-12.954l-4.363-4.363a4.88,4.88,0,0,1,4.016-8.3c3.321.38,6.659.861,9.921,1.429h0l43.014,7.515a6.015,6.015,0,0,1,4.878,4.878l7.514,43.013c.566,3.246,1.047,6.584,1.43,9.921a4.88,4.88,0,0,1-8.3,4.016l-4.363-4.363a8.858,8.858,0,0,0-6.594-2.564,8.721,8.721,0,0,0-6.36,3.149,9.026,9.026,0,0,0,.79,12.085l23.4,23.4a4.865,4.865,0,0,1,1.407,4.018,174.2,174.2,0,0,1-7.441,34.059,4.883,4.883,0,0,1-8.637,1.273L205.686,119.69A8.781,8.781,0,0,0,191.3,129.762l32.785,46.822a4.912,4.912,0,0,1,.278,5.167,173.668,173.668,0,0,1-11.756,18.382,119.854,119.854,0,0,1-12.174,14.142,4.883,4.883,0,0,1-7.862-1.4L167.6,159.316a8.78,8.78,0,1,0-15.915,7.42l27.6,59.18a4.851,4.851,0,0,1-1.9,6.24,119.333,119.333,0,0,1-11.886,6.22,87.083,87.083,0,0,1-20.386,6.359,4.883,4.883,0,0,1-5.573-3.512l-11.5-42.918a8.809,8.809,0,0,0-4.428-5.516,8.715,8.715,0,0,0-7.082-.454,9.025,9.025,0,0,0-5.36,10.859l9.56,35.677a4.878,4.878,0,0,1-1.1,4.556A4.829,4.829,0,0,1,116.037,245.022Zm-46.72-60.34a2,2,0,0,1,1.418,3.412,21.023,21.023,0,0,0,0,29.7A82.69,82.69,0,0,0,115.9,241.011a.851.851,0,0,0,.761-.272.882.882,0,0,0,.2-.833L107.3,204.229a13.05,13.05,0,0,1,7.856-15.654,12.664,12.664,0,0,1,10.3.666,12.809,12.809,0,0,1,6.443,8.029l11.5,42.918a.917.917,0,0,0,1,.612,83.161,83.161,0,0,0,19.449-6.066,115.883,115.883,0,0,0,11.487-6.012.875.875,0,0,0,.322-1.116l-27.595-59.178a12.78,12.78,0,0,1,23.165-10.8L196.2,211.183a.867.867,0,0,0,.646.5.854.854,0,0,0,.772-.24,115.869,115.869,0,0,0,11.767-13.67,169.569,169.569,0,0,0,11.484-17.956.887.887,0,0,0-.056-.932l-32.786-46.823A12.781,12.781,0,1,1,208.962,117.4l23.213,33.151a.873.873,0,0,0,.857.367.834.834,0,0,0,.7-.587A170.142,170.142,0,0,0,241,117.052a.9.9,0,0,0-.26-.731l-23.4-23.4a13.049,13.049,0,0,1-1.025-17.485,12.78,12.78,0,0,1,18.845-.841l4.363,4.363a.827.827,0,0,0,1,.17.843.843,0,0,0,.5-.9c-.373-3.259-.843-6.519-1.4-9.689l-7.513-43.012A2,2,0,0,0,230.48,23.9L187.467,16.38c-3.187-.556-6.446-1.026-9.689-1.4a.84.84,0,0,0-.9.495.828.828,0,0,0,.17,1l4.363,4.363a12.812,12.812,0,0,1,3.732,9.593,12.682,12.682,0,0,1-4.573,9.252,13.049,13.049,0,0,1-17.484-1.024l-23.4-23.4a.879.879,0,0,0-.733-.26,170.074,170.074,0,0,0-33.274,7.269.834.834,0,0,0-.587.7.867.867,0,0,0,.367.857L138.6,47.037a12.781,12.781,0,0,1-14.661,20.939L77.121,35.192a.889.889,0,0,0-.933-.056A169.562,169.562,0,0,0,58.231,46.619,115.875,115.875,0,0,0,44.563,58.386a.882.882,0,0,0,.253,1.418L98.375,84.778a12.78,12.78,0,1,1-10.8,23.165L28.393,80.348a.871.871,0,0,0-1.113.32,115.606,115.606,0,0,0-6.013,11.488,83.164,83.164,0,0,0-6.079,19.514.837.837,0,0,0,.625.932L58.73,124.1a12.824,12.824,0,0,1,7.948,6.292,12.677,12.677,0,0,1,.862,10.114,13.015,13.015,0,0,1-15.832,8.174l-35.614-9.543a.887.887,0,0,0-.834.2.827.827,0,0,0-.271.762,82.687,82.687,0,0,0,23.218,45.163,21.022,21.022,0,0,0,29.7,0,1.964,1.964,0,0,1,.52-.375A2,2,0,0,1,69.317,184.682Z" fill="#3762cc"/><path d="M201.514,62a5.31,5.31,0,0,0-.042-7.468h0A5.31,5.31,0,0,0,194,54.485L16.2,228.363a3.447,3.447,0,0,0-.028,4.9l6.56,6.56a3.447,3.447,0,0,0,4.9-.028Z" fill="#e0ebfc"/><path d="M25.171,242.834a5.407,5.407,0,0,1-3.848-1.592l0,0-6.56-6.56a5.447,5.447,0,0,1,.043-7.747l177.8-173.877a7.311,7.311,0,0,1,10.338,10.338L29.066,241.2a5.4,5.4,0,0,1-3.864,1.639Zm-1.019-4.42a1.432,1.432,0,0,0,1.019.42h.009a1.432,1.432,0,0,0,1.027-.436L200.084,60.6h0a3.311,3.311,0,0,0-4.682-4.682L17.6,229.792a1.449,1.449,0,0,0-.012,2.06l6.56,6.56Z" fill="#3762cc"/></svg>
