<svg height="512" viewBox="0 0 256 256" width="512" xmlns="http://www.w3.org/2000/svg"><path d="m153.446 29.825a45.368 45.368 0 0 1 -1.321 37.875l-4.589 9.132h-39.072l-4.589-9.132a45.368 45.368 0 0 1 -1.321-37.873 41.935 41.935 0 0 1 15.8-18.959 17.674 17.674 0 0 1 19.3 0 41.935 41.935 0 0 1 15.792 18.957z" fill="#f9cfcf"/><path d="m159.334 87.9 8.5 31.735 20.716-5.551a7.4 7.4 0 0 1 5.8.854l15.456 9.559a24.514 24.514 0 0 0 19.238 2.83l3.522-.944a5.749 5.749 0 0 0 4.065-7.042 60.15 60.15 0 0 0 -28.025-36.523l-1.358-.784a23 23 0 0 0 -17.452-2.3z" fill="#f9cfcf"/><path d="m96.666 87.9-8.5 31.735-20.716-5.551a7.4 7.4 0 0 0 -5.8.854l-15.462 9.562a24.514 24.514 0 0 1 -19.238 2.83l-3.522-.944a5.749 5.749 0 0 1 -4.065-7.042 60.15 60.15 0 0 1 28.025-36.525l1.358-.784a23 23 0 0 1 17.452-2.3z" fill="#f9cfcf"/><ellipse cx="180.046" cy="212.879" fill="#f9cfcf" rx="18.329" ry="39.139" transform="matrix(.866 -.5 .5 .866 -82.318 118.543)"/><ellipse cx="75.954" cy="212.879" fill="#f9cfcf" rx="39.139" ry="18.329" transform="matrix(.5 -.866 .866 .5 -146.382 172.218)"/><path d="m147.536 78.831h-39.072a2 2 0 0 1 -1.787-1.1l-4.59-9.133a47.319 47.319 0 0 1 -1.378-39.542 43.763 43.763 0 0 1 16.551-19.866 19.687 19.687 0 0 1 21.48 0 43.763 43.763 0 0 1 16.551 19.864 47.319 47.319 0 0 1 -1.378 39.546l-4.59 9.133a2 2 0 0 1 -1.787 1.098zm-37.838-4h36.6l4.036-8.031a43.322 43.322 0 0 0 1.266-36.2 39.785 39.785 0 0 0 -15.044-18.055 15.681 15.681 0 0 0 -17.114 0 39.785 39.785 0 0 0 -15.042 18.055 43.322 43.322 0 0 0 1.263 36.2z" fill="#3762cc"/><path d="m222.734 130.156a26.592 26.592 0 0 1 -13.975-3.958l-15.459-9.558a5.416 5.416 0 0 0 -4.232-.623l-20.717 5.551a2 2 0 0 1 -2.449-1.414l-8.5-31.736a2 2 0 0 1 1.414-2.449l30.467-8.163a24.828 24.828 0 0 1 18.969 2.5l1.359.784a61.746 61.746 0 0 1 28.957 37.738 7.758 7.758 0 0 1 -5.48 9.491l-3.521.943a26.4 26.4 0 0 1 -6.833.894zm-32.277-18.32a9.426 9.426 0 0 1 4.951 1.4l15.455 9.558a22.6 22.6 0 0 0 17.67 2.6l3.521-.943a3.756 3.756 0 0 0 2.652-4.593 57.775 57.775 0 0 0 -27.094-35.309l-1.359-.784a20.861 20.861 0 0 0 -15.934-2.1l-28.535 7.646 7.468 27.872 18.785-5.033a9.3 9.3 0 0 1 2.42-.314z" fill="#3762cc"/><path d="m33.266 130.156a26.4 26.4 0 0 1 -6.834-.9l-3.521-.943a7.758 7.758 0 0 1 -5.48-9.491 61.746 61.746 0 0 1 28.957-37.735l1.359-.784a24.823 24.823 0 0 1 18.969-2.5l30.467 8.163a2 2 0 0 1 1.417 2.452l-8.5 31.736a2 2 0 0 1 -2.449 1.414l-20.717-5.551a5.415 5.415 0 0 0 -4.232.623l-15.462 9.56a26.6 26.6 0 0 1 -13.974 3.956zm26.945-49.212a20.873 20.873 0 0 0 -10.464 2.823l-1.359.784a57.775 57.775 0 0 0 -27.094 35.309 3.756 3.756 0 0 0 2.652 4.593l3.521.943a22.594 22.594 0 0 0 17.669-2.6l15.456-9.559a9.435 9.435 0 0 1 7.372-1.084l18.784 5.033 7.468-27.872-28.535-7.645a21.155 21.155 0 0 0 -5.47-.725z" fill="#3762cc"/><path d="m194.82 249.991c-9.824 0-22.877-10.49-32.379-26.948-11.534-19.978-12.836-40.091-2.964-45.791 4.95-2.858 11.733-1.6 19.1 3.54 6.929 4.834 13.7 12.621 19.074 21.923 5.371 9.3 8.726 19.061 9.449 27.48.769 8.951-1.535 15.453-6.485 18.311a11.415 11.415 0 0 1 -5.795 1.485zm-29.52-70.22a7.549 7.549 0 0 0 -3.823.945c-7.665 4.426-5.638 22.893 4.428 40.327 8.554 14.817 20.659 24.979 28.806 24.98a7.683 7.683 0 0 0 3.9-.981c3.479-2.008 5.119-7.295 4.5-14.5-.674-7.848-3.844-17.018-8.928-25.823-5.083-8.805-11.44-16.136-17.9-20.643-4.056-2.838-7.867-4.305-10.983-4.305z" fill="#3762cc"/><path d="m61.18 249.991a11.413 11.413 0 0 1 -5.8-1.485c-4.95-2.858-7.254-9.36-6.485-18.311.723-8.419 4.078-18.178 9.449-27.48s12.145-17.089 19.074-21.923c7.367-5.141 14.15-6.4 19.1-3.54 9.872 5.7 8.57 25.813-2.964 45.791-9.496 16.457-22.554 26.946-32.374 26.948zm29.52-70.22c-3.116 0-6.926 1.467-10.988 4.3-6.459 4.507-12.816 11.838-17.9 20.643-5.084 8.805-8.254 17.975-8.928 25.823-.619 7.209 1.021 12.5 4.5 14.5a7.693 7.693 0 0 0 3.9.981c8.147 0 20.251-10.161 28.806-24.98 10.066-17.434 12.093-35.9 4.428-40.327a7.551 7.551 0 0 0 -3.818-.94z" fill="#3762cc"/><ellipse cx="128" cy="147.066" fill="#6bdddd" rx="76.799" ry="86.36"/><ellipse cx="128" cy="147.066" fill="#e0ebfc" rx="67.97" ry="77.339"/><path d="m114.432 170.566-13.568-23.5 13.568-23.501h27.136l13.568 23.501-13.568 23.5z" fill="#6bdddd"/><path d="m172.772 205.23h-11.186l-7.713 13.359a67.261 67.261 0 0 0 18.899-13.359z" fill="#6bdddd"/><path d="m94.437 205.23h-11.209a67.274 67.274 0 0 0 18.93 13.373z" fill="#6bdddd"/><path d="m83.228 88.9h11.209l7.721-13.374a67.257 67.257 0 0 0 -18.93 13.374z" fill="#6bdddd"/><path d="m161.586 88.9h11.186a67.265 67.265 0 0 0 -18.9-13.36z" fill="#6bdddd"/><path d="m76.714 96.344a81.766 81.766 0 0 0 -15.508 36.444l6.094 10.557h27.137l13.568-23.5-13.568-23.5z" fill="#6bdddd"/><path d="m67.3 150.787-6.095 10.557a81.766 81.766 0 0 0 15.508 36.444h17.724l13.568-23.5-13.568-23.5z" fill="#6bdddd"/><path d="m114.432 178.008-13.568 23.5 12.111 20.977a59.779 59.779 0 0 0 30.05 0l12.111-20.977-13.568-23.5z" fill="#6bdddd"/><path d="m194.8 161.313-6.077-10.526h-27.137l-13.568 23.5 13.568 23.5h17.7a81.8 81.8 0 0 0 15.514-36.474z" fill="#6bdddd"/><path d="m194.8 132.819a81.772 81.772 0 0 0 -15.513-36.475h-17.7l-13.568 23.5 13.568 23.5h27.136z" fill="#6bdddd"/><path d="m112.975 71.646-12.111 20.977 13.568 23.5h27.136l13.568-23.5-12.111-20.977a59.749 59.749 0 0 0 -30.05 0z" fill="#6bdddd"/><g fill="#3762cc"><path d="m128 235.426c-43.45 0-78.8-39.638-78.8-88.361s35.35-88.359 78.8-88.359 78.8 39.638 78.8 88.359-35.35 88.361-78.8 88.361zm0-172.72c-41.244 0-74.8 37.843-74.8 84.359s33.555 84.361 74.8 84.361 74.8-37.844 74.8-84.361-33.556-84.359-74.8-84.359z"/><path d="m128 226.405c-38.582 0-69.97-35.591-69.97-79.339s31.388-79.339 69.97-79.339 69.97 35.591 69.97 79.339-31.388 79.339-69.97 79.339zm0-154.678c-36.376 0-65.97 33.8-65.97 75.339s29.594 75.339 65.97 75.339 65.97-33.8 65.97-75.339-29.594-75.339-65.97-75.339z"/><path d="m141.568 172.566h-27.136a2 2 0 0 1 -1.732-1l-13.568-23.5a2 2 0 0 1 0-2l13.568-23.5a2 2 0 0 1 1.732-1h27.136a2 2 0 0 1 1.732 1l13.568 23.5a2 2 0 0 1 0 2l-13.568 23.5a2 2 0 0 1 -1.732 1zm-25.981-4h24.826l12.413-21.5-12.413-21.5h-24.826l-12.413 21.5z"/><path d="m153.874 220.589a2 2 0 0 1 -1.733-3l7.713-13.359a2 2 0 0 1 1.732-1h11.185a2 2 0 0 1 1.413 3.416 69.092 69.092 0 0 1 -19.462 13.754 1.986 1.986 0 0 1 -.848.189zm8.867-13.359-3.614 6.259a65.458 65.458 0 0 0 8.552-6.259z"/><path d="m102.157 220.6a2 2 0 0 1 -.847-.188 69.1 69.1 0 0 1 -19.494-13.769 2 2 0 0 1 1.413-3.416h11.208a2 2 0 0 1 1.731 1l7.722 13.373a2 2 0 0 1 -1.733 3zm-13.836-13.37a65.413 65.413 0 0 0 8.586 6.279l-3.625-6.279z"/><path d="m94.437 90.9h-11.209a2 2 0 0 1 -1.412-3.416 69.117 69.117 0 0 1 19.494-13.767 2 2 0 0 1 2.58 2.811l-7.722 13.372a2 2 0 0 1 -1.731 1zm-6.116-4h4.961l3.625-6.279a65.6 65.6 0 0 0 -8.586 6.279z"/><path d="m172.772 90.9h-11.186a2 2 0 0 1 -1.732-1l-7.713-13.359a2 2 0 0 1 2.581-2.811 69.145 69.145 0 0 1 19.462 13.754 2 2 0 0 1 -1.412 3.416zm-10.031-4h4.938a65.475 65.475 0 0 0 -8.552-6.258z"/><path d="m94.437 145.345h-27.137a2 2 0 0 1 -1.732-1l-6.1-10.557a2.005 2.005 0 0 1 -.242-1.324 83.954 83.954 0 0 1 15.899-37.335 2 2 0 0 1 1.589-.785h17.723a2 2 0 0 1 1.731 1l13.569 23.5a2 2 0 0 1 0 2l-13.569 23.5a2 2 0 0 1 -1.731 1.001zm-25.981-4h24.826l12.413-21.5-12.413-21.5h-15.572a80 80 0 0 0 -14.41 34.066z"/><path d="m94.437 199.788h-17.723a2 2 0 0 1 -1.589-.788 83.953 83.953 0 0 1 -15.893-37.336 2 2 0 0 1 .242-1.323l6.1-10.557a2 2 0 0 1 1.732-1h27.131a2 2 0 0 1 1.731 1l13.569 23.5a2 2 0 0 1 0 2l-13.569 23.5a2 2 0 0 1 -1.731 1.004zm-16.727-4h15.572l12.413-21.5-12.413-21.5h-24.826l-5.156 8.933a80 80 0 0 0 14.41 34.067z"/><path d="m128 226.405a62.417 62.417 0 0 1 -15.523-1.983 1.992 1.992 0 0 1 -1.234-.937l-12.111-20.976a2 2 0 0 1 0-2l13.568-23.5a2 2 0 0 1 1.732-1h27.136a2 2 0 0 1 1.732 1l13.568 23.5a2 2 0 0 1 0 2l-12.111 20.976a1.992 1.992 0 0 1 -1.234.937 62.417 62.417 0 0 1 -15.523 1.983zm-13.718-5.655a57.927 57.927 0 0 0 27.436 0l11.108-19.241-12.413-21.5h-24.826l-12.413 21.5z"/><path d="m179.286 199.788h-17.7a2 2 0 0 1 -1.732-1l-13.568-23.5a2 2 0 0 1 0-2l13.568-23.5a2 2 0 0 1 1.732-1h27.136a2 2 0 0 1 1.732 1l6.077 10.526a2 2 0 0 1 .241 1.323 83.945 83.945 0 0 1 -15.897 37.363 2 2 0 0 1 -1.589.788zm-16.545-4h15.549a80.024 80.024 0 0 0 14.418-34.1l-5.141-8.9h-24.826l-12.413 21.5z"/><path d="m188.722 145.345h-27.136a2 2 0 0 1 -1.732-1l-13.568-23.5a2 2 0 0 1 0-2l13.568-23.5a2 2 0 0 1 1.732-1h17.7a2 2 0 0 1 1.589.785 83.94 83.94 0 0 1 15.9 37.367 2 2 0 0 1 -.241 1.323l-6.077 10.526a2 2 0 0 1 -1.735.999zm-25.981-4h24.826l5.141-8.9a80.03 80.03 0 0 0 -14.418-34.1h-15.549l-12.413 21.5z"/><path d="m141.568 118.124h-27.136a2 2 0 0 1 -1.732-1l-13.568-23.5a2 2 0 0 1 0-2l12.111-20.977a2 2 0 0 1 1.234-.937 62.044 62.044 0 0 1 31.046 0 2 2 0 0 1 1.234.937l12.111 20.977a2 2 0 0 1 0 2l-13.568 23.5a2 2 0 0 1 -1.732 1zm-25.981-4h24.826l12.413-21.5-11.108-19.243a57.978 57.978 0 0 0 -27.436 0l-11.108 19.242z"/></g><rect fill="#4671c6" height="9.333" rx="3.167" width="6.333" x="114.833" y="22.333"/><rect fill="#4671c6" height="9.333" rx="3.167" width="6.333" x="134.833" y="22.333"/></svg>